<svg width="41" height="40" viewBox="0 0 41 40" fill="none" xmlns="http://www.w3.org/2000/svg">
<g id="noto:slightly-frowning-face">
<path id="Vector" d="M20.375 37.125C11.6562 37.125 2.25 31.6563 2.25 19.6563C2.25 7.65625 11.6562 2.1875 20.375 2.1875C25.2188 2.1875 29.6875 3.78125 33 6.6875C36.5938 9.875 38.5 14.375 38.5 19.6563C38.5 24.9375 36.5938 29.4063 33 32.5938C29.6875 35.5 25.1875 37.125 20.375 37.125Z" fill="url(#paint0_radial_266_823)"/>
<path id="Vector_2" d="M35.3406 9.27197C37.0063 11.9595 37.875 15.1595 37.875 18.7188C37.875 24.0001 35.9688 28.4688 32.375 31.6563C29.0625 34.5626 24.5625 36.1876 19.75 36.1876C14.1063 36.1876 8.18751 33.8907 4.69376 29.0188C8.05626 34.5376 14.3813 37.1251 20.375 37.1251C25.1875 37.1251 29.6875 35.5001 33 32.5938C36.5938 29.4063 38.5 24.9376 38.5 19.6563C38.5 15.6751 37.4156 12.1376 35.3406 9.27197Z" fill="#EB8F00"/>
<path id="Vector_3" d="M14.25 12.7939C12.9406 12.7939 11.75 13.9002 11.75 15.7377C11.75 17.5752 12.9406 18.6783 14.25 18.6783C15.5625 18.6783 16.75 17.5721 16.75 15.7377C16.75 13.9033 15.575 12.7939 14.25 12.7939Z" fill="#422B0D"/>
<path id="Vector_4" d="M14.1406 14.0217C13.9266 13.9199 13.6811 13.9068 13.4575 13.9852C13.2339 14.0636 13.0504 14.2273 12.9469 14.4404C12.7812 14.7873 12.8562 15.2029 13.1344 15.4717C13.5781 15.6842 14.1125 15.4967 14.3281 15.0529C14.4937 14.706 14.4187 14.2904 14.1406 14.0217Z" fill="#896024"/>
<path id="Vector_5" d="M26.25 12.7939C24.9406 12.7939 23.75 13.9002 23.75 15.7377C23.75 17.5752 24.9406 18.6783 26.25 18.6783C27.5594 18.6783 28.75 17.5721 28.75 15.7377C28.75 13.9033 27.5594 12.7939 26.25 12.7939Z" fill="#422B0D"/>
<path id="Vector_6" d="M26.125 14.0217C25.911 13.9199 25.6655 13.9068 25.4419 13.9852C25.2183 14.0636 25.0347 14.2273 24.9312 14.4404C24.7656 14.7873 24.8406 15.2029 25.1187 15.4717C25.5625 15.6842 26.0969 15.4967 26.3125 15.0529C26.4781 14.706 26.4031 14.2904 26.125 14.0217Z" fill="#896024"/>
<path id="Vector_7" d="M20.5562 24.4345C23.3906 24.4095 26.1031 25.6032 28 27.7095C28.1437 27.8751 28.1781 28.1095 28.0875 28.3095C27.9969 28.5126 27.7969 28.6438 27.575 28.647C27.475 28.647 27.375 28.6188 27.2875 28.5688C25.7812 27.7032 23.2625 26.6282 20.5625 26.6282H20.5187C17.8219 26.6282 15.3 27.7032 13.7969 28.5688C13.7094 28.6188 13.6094 28.647 13.5094 28.647C13.2875 28.6438 13.0906 28.5126 13 28.3095C12.9062 28.1095 12.9406 27.8751 13.0875 27.7095C14.0252 26.6679 15.1734 25.8374 16.4561 25.2728C17.7388 24.7083 19.1267 24.4225 20.5281 24.4345" fill="#422B0D"/>
</g>
<defs>
<radialGradient id="paint0_radial_266_823" cx="0" cy="0" r="1" gradientUnits="userSpaceOnUse" gradientTransform="translate(20.375 19.6563) scale(17.8 17.8)">
<stop offset="0.5" stop-color="#FDE030"/>
<stop offset="0.92" stop-color="#F7C02B"/>
<stop offset="1" stop-color="#F4A223"/>
</radialGradient>
</defs>
</svg>
