<svg width="41" height="40" viewBox="0 0 41 40" fill="none" xmlns="http://www.w3.org/2000/svg">
<g id="noto:relieved-face">
<path id="Vector" d="M20.375 37.125C11.6562 37.125 2.25 31.6562 2.25 19.6562C2.25 7.65625 11.6562 2.1875 20.375 2.1875C25.2188 2.1875 29.6875 3.78125 33 6.6875C36.5938 9.875 38.5 14.375 38.5 19.6562C38.5 24.9375 36.5938 29.4063 33 32.5938C29.6875 35.5 25.1875 37.125 20.375 37.125Z" fill="url(#paint0_radial_266_807)"/>
<path id="Vector_2" d="M35.3406 9.27197C37.0063 11.9595 37.875 15.1595 37.875 18.7188C37.875 24.0001 35.9688 28.4688 32.375 31.6563C29.0625 34.5626 24.5625 36.1876 19.75 36.1876C14.1063 36.1876 8.18751 33.8907 4.69376 29.0188C8.05626 34.5376 14.3813 37.1251 20.375 37.1251C25.1875 37.1251 29.6875 35.5001 33 32.5938C36.5938 29.4063 38.5 24.9376 38.5 19.6563C38.5 15.6751 37.4156 12.1376 35.3406 9.27197Z" fill="#EB8F00"/>
<path id="Vector_3" d="M20.5 31.5624C17.8313 31.5624 15.9281 29.5968 15.3531 28.5062C15.1344 28.1374 15.0938 27.6874 15.2375 27.2843C15.325 27.0437 15.5563 26.8812 15.8125 26.8749C15.9 26.878 15.9844 26.8937 16.0656 26.9249C17.4094 27.453 18.5875 28.2187 20.5156 28.2187C22.4438 28.2187 23.6406 27.453 24.9656 26.9249C25.0469 26.8937 25.1313 26.8749 25.2188 26.8749C25.4719 26.8874 25.6906 27.0468 25.7781 27.2843C25.9219 27.6874 25.8813 28.1374 25.6625 28.5062C25.0719 29.5968 23.1688 31.5624 20.5 31.5624ZM15.9719 16.9905L15.9094 17.053C15.8594 17.1093 15.8063 17.1624 15.75 17.2093L15.5344 17.3874C15.4438 17.4562 15.3406 17.5312 15.2219 17.6062C15.1031 17.6812 14.9813 17.753 14.8469 17.8218C14.7094 17.8905 14.5656 17.9499 14.4188 17.9999C14.2656 18.0468 14.1094 18.0843 13.95 18.1155C13.7875 18.1405 13.625 18.153 13.4594 18.153H13.1844L12.9656 18.1249C12.8063 18.0937 12.65 18.0562 12.4969 18.0093C12.3469 17.953 12.2031 17.8874 12.0625 17.8124C11.9281 17.7437 11.8031 17.6687 11.6875 17.5968C11.5031 17.4749 11.3313 17.3374 11.1688 17.1874L10.9719 17.0062L10.8938 16.928C10.7007 16.7511 10.4511 16.6487 10.1895 16.6389C9.92782 16.6292 9.67126 16.7129 9.46563 16.8749C9.31502 16.9908 9.20867 17.1549 9.16432 17.3397C9.11997 17.5245 9.14028 17.7189 9.22188 17.8905L9.26875 17.9843C9.30938 18.0749 9.35625 18.1624 9.40625 18.2468C9.72932 18.7842 10.1655 19.2448 10.6844 19.5968C10.9313 19.7687 11.1938 19.9155 11.4688 20.0343C11.7719 20.1687 12.0844 20.2718 12.4063 20.3468C12.5781 20.378 12.7375 20.4093 12.9469 20.428C13.0438 20.428 13.1563 20.4468 13.2063 20.4468H13.45C13.8 20.4405 14.1469 20.4062 14.4906 20.3374C14.8125 20.2624 15.125 20.1593 15.4281 20.0249C15.7031 19.9062 15.9656 19.7593 16.2125 19.5874C16.6005 19.3243 16.9434 19.0004 17.2281 18.628L17.3781 18.4187L17.5031 18.2218C17.55 18.1468 17.5906 18.0655 17.625 17.9812L17.6594 17.903C17.8469 17.4562 17.6344 16.9405 17.1875 16.753C17.1563 16.7405 17.125 16.728 17.0938 16.7218C16.7 16.5968 16.2656 16.6999 15.9719 16.9905ZM30.0344 16.9905L29.9719 17.053C29.9219 17.1093 29.8688 17.1624 29.8125 17.2093L29.5969 17.3874C29.5063 17.4562 29.4031 17.5312 29.2844 17.6062C29.1656 17.6812 29.0438 17.753 28.9094 17.8218C28.7719 17.8905 28.6281 17.9499 28.4813 17.9999C28.3281 18.0468 28.1719 18.0843 28.0125 18.1155C27.85 18.1405 27.6875 18.153 27.5219 18.153H27.2469L27.0281 18.1249C26.8688 18.0937 26.7125 18.0562 26.5594 18.0093C26.4094 17.953 26.2656 17.8874 26.125 17.8124C25.9906 17.7437 25.8656 17.6687 25.75 17.5968C25.5656 17.4749 25.3938 17.3374 25.2313 17.1874L25.0344 17.0062L24.9563 16.928C24.7632 16.7511 24.5136 16.6487 24.252 16.6389C23.9903 16.6292 23.7338 16.7129 23.5281 16.8749C23.3775 16.9908 23.2712 17.1549 23.2268 17.3397C23.1825 17.5245 23.2028 17.7189 23.2844 17.8905L23.3313 17.9843C23.3719 18.0749 23.4188 18.1624 23.4688 18.2468C23.7918 18.7842 24.2279 19.2448 24.7469 19.5968C24.9938 19.7687 25.2563 19.9155 25.5313 20.0343C25.8375 20.1687 26.1563 20.2749 26.4844 20.3468C26.6563 20.378 26.8156 20.4093 27.025 20.428C27.1219 20.428 27.2344 20.4468 27.2844 20.4468H27.5281C27.8781 20.4405 28.225 20.4062 28.5688 20.3374C28.8969 20.2655 29.2156 20.1593 29.5219 20.0249C29.7969 19.9062 30.0594 19.7593 30.3063 19.5874C30.6942 19.3243 31.0372 19.0004 31.3219 18.628L31.4719 18.4187L31.5969 18.2218C31.6438 18.1468 31.6844 18.0655 31.7188 17.9812L31.7531 17.903C31.9406 17.4562 31.7281 16.9405 31.2813 16.753C31.25 16.7405 31.2188 16.728 31.1875 16.7218C30.9895 16.6533 30.7762 16.6422 30.5722 16.6898C30.3681 16.7373 30.1817 16.8416 30.0344 16.9905ZM9.38125 13.5249C9.1625 13.753 8.79688 13.7624 8.56875 13.5405C8.3625 13.3437 8.33438 13.0218 8.5 12.7905C8.84994 12.2896 9.27959 11.8494 9.77188 11.4874C11.0813 10.478 12.7219 9.99991 14.3688 10.153C15.1438 10.2499 14.9938 11.2405 14.3031 11.3062C12.4531 11.453 10.7156 12.2374 9.38125 13.5249ZM31.2781 13.5249C31.4969 13.753 31.8625 13.7624 32.0906 13.5405C32.2969 13.3437 32.325 13.0218 32.1594 12.7905C31.8094 12.2896 31.3798 11.8494 30.8875 11.4874C29.5791 10.4774 27.9365 10.0006 26.2906 10.153C25.5156 10.2499 25.6656 11.2405 26.3563 11.3062C28.2063 11.453 29.9438 12.2374 31.2781 13.5249Z" fill="#422B0D"/>
</g>
<defs>
<radialGradient id="paint0_radial_266_807" cx="0" cy="0" r="1" gradientUnits="userSpaceOnUse" gradientTransform="translate(20.375 19.6562) scale(17.8)">
<stop offset="0.5" stop-color="#FDE030"/>
<stop offset="0.92" stop-color="#F7C02B"/>
<stop offset="1" stop-color="#F4A223"/>
</radialGradient>
</defs>
</svg>
