<svg width="41" height="40" viewBox="0 0 41 40" fill="none" xmlns="http://www.w3.org/2000/svg">
<g id="noto:smiling-face-with-hearts" clip-path="url(#clip0_974_18)">
<path id="Vector" d="M20.375 37.125C11.6562 37.125 2.25 31.6562 2.25 19.6562C2.25 7.65625 11.6562 2.1875 20.375 2.1875C25.2188 2.1875 29.6875 3.78125 33 6.6875C36.5938 9.875 38.5 14.375 38.5 19.6562C38.5 24.9375 36.5938 29.4063 33 32.5938C29.6875 35.5 25.1875 37.125 20.375 37.125Z" fill="url(#paint0_radial_974_18)"/>
<path id="Vector_2" d="M35.3406 9.27197C37.0062 11.9595 37.875 15.1595 37.875 18.7188C37.875 24.0001 35.9688 28.4688 32.375 31.6563C29.0625 34.5626 24.5625 36.1876 19.75 36.1876C14.1062 36.1876 8.175 33.8907 4.69375 29.0188C8.05625 34.5376 14.3781 37.1251 20.375 37.1251C25.1875 37.1251 29.6875 35.5001 33 32.5938C36.5938 29.4063 38.5 24.9376 38.5 19.6563C38.5 15.6751 37.4156 12.1376 35.3406 9.27197Z" fill="#EB8F00"/>
<path id="Vector_3" opacity="0.8" d="M9.01562 25.103C12.0359 25.103 14.4844 22.6546 14.4844 19.6343C14.4844 16.614 12.0359 14.1655 9.01562 14.1655C5.99532 14.1655 3.54688 16.614 3.54688 19.6343C3.54688 22.6546 5.99532 25.103 9.01562 25.103Z" fill="url(#paint1_radial_974_18)"/>
<path id="Vector_4" opacity="0.8" d="M31.9844 25.103C35.0047 25.103 37.4531 22.6546 37.4531 19.6343C37.4531 16.614 35.0047 14.1655 31.9844 14.1655C28.9641 14.1655 26.5156 16.614 26.5156 19.6343C26.5156 22.6546 28.9641 25.103 31.9844 25.103Z" fill="url(#paint2_radial_974_18)"/>
<path id="Vector_5" d="M31.9656 20.3251C28.7563 22.1876 24.7938 23.2907 20.5 23.2907C16.2063 23.2907 12.2438 22.1876 9.03438 20.3251C8.44375 19.9845 7.825 20.722 8.26563 21.2376C11.1719 24.6345 15.5719 26.8001 20.5 26.8001C25.4281 26.8001 29.8281 24.6345 32.7344 21.2376C33.1781 20.7188 32.5563 19.9813 31.9656 20.3251ZM15.9875 13.7876C15.9875 13.7876 15.9719 13.7657 15.9375 13.7251L15.8063 13.5563C15.7594 13.5063 15.7031 13.447 15.6375 13.3782C15.5719 13.3032 15.4906 13.2251 15.4094 13.1438C15.325 13.0657 15.2375 12.9845 15.1469 12.9188C15.0594 12.847 14.9625 12.7938 14.8844 12.7501C14.8031 12.7001 14.7281 12.6876 14.6813 12.672C14.6563 12.6626 14.6344 12.6626 14.6156 12.6595C14.6063 12.6626 14.5969 12.6563 14.5875 12.6595L14.575 12.6626H14.5656C14.6031 12.6626 14.4813 12.6657 14.65 12.6595L14.4781 12.6657C14.4344 12.6657 14.4625 12.6688 14.4656 12.6688C14.475 12.6688 14.4813 12.6688 14.4875 12.6657C14.5125 12.6563 14.4875 12.6657 14.4813 12.6657C14.4692 12.6663 14.4575 12.6695 14.4469 12.6751C14.3969 12.6907 14.3219 12.7032 14.2438 12.7532C14.1656 12.797 14.0688 12.8501 13.9813 12.922C13.8938 12.9907 13.8031 13.0688 13.7188 13.147C13.5563 13.3063 13.4125 13.4657 13.3125 13.5813C13.2094 13.7001 13.1531 13.7688 13.1531 13.7688L13.0813 13.8532C12.6531 14.3532 11.8656 14.4376 11.325 14.0438C10.9563 13.7751 10.7969 13.3563 10.8656 12.9563C10.8656 12.9563 10.8875 12.8282 10.95 12.6063C11.0156 12.3845 11.125 12.0688 11.3406 11.697C11.5563 11.3282 11.8688 10.8938 12.3969 10.497C12.6563 10.3032 12.9719 10.1095 13.3469 9.97822C13.4375 9.94385 13.5344 9.9126 13.6344 9.8876C13.7375 9.8626 13.8188 9.83447 13.9594 9.81572L14.1531 9.7876C14.2125 9.78135 14.3 9.77197 14.3125 9.77197L14.4844 9.75947L14.5813 9.75635H14.6094L14.65 9.75947L14.7313 9.7626L14.8906 9.77197C14.9969 9.78135 15.1 9.8001 15.2031 9.81572C15.4063 9.85322 15.6094 9.90635 15.7938 9.9751C16.1356 10.0972 16.4562 10.2723 16.7438 10.4938C17.2719 10.8907 17.5844 11.3251 17.8 11.6938C17.9094 11.8782 17.9906 12.0532 18.05 12.2063C18.1156 12.3532 18.1625 12.5095 18.2 12.6251C18.2344 12.7376 18.2344 12.797 18.25 12.8501C18.2594 12.9001 18.2625 12.9282 18.2625 12.9282C18.3781 13.5595 17.9125 14.1563 17.2281 14.2595C16.7313 14.3376 16.2594 14.1376 15.9875 13.7876ZM27.7063 13.7876C27.7063 13.7876 27.6906 13.7657 27.6563 13.7251L27.525 13.5563C27.4781 13.5063 27.4219 13.447 27.3563 13.3782C27.2906 13.3032 27.2094 13.2251 27.1281 13.1438C27.0438 13.0657 26.9563 12.9845 26.8656 12.9188C26.7781 12.847 26.6813 12.7938 26.6031 12.7501C26.5219 12.7001 26.4469 12.6876 26.4 12.672C26.375 12.6626 26.3531 12.6626 26.3344 12.6595C26.325 12.6626 26.3156 12.6563 26.3063 12.6595L26.2938 12.6626H26.2813C26.3188 12.6626 26.1969 12.6657 26.3656 12.6595L26.1938 12.6657C26.15 12.6657 26.1781 12.6688 26.1813 12.6688C26.1906 12.6688 26.1969 12.6688 26.2031 12.6657C26.2281 12.6563 26.2031 12.6657 26.1969 12.6657C26.1849 12.6663 26.1731 12.6695 26.1625 12.6751C26.1125 12.6907 26.0375 12.7032 25.9594 12.7532C25.8813 12.797 25.7844 12.8501 25.6969 12.922C25.6094 12.9907 25.5188 13.0688 25.4344 13.147C25.2719 13.3063 25.1281 13.4657 25.0281 13.5813C24.925 13.7001 24.8688 13.7688 24.8688 13.7688L24.7969 13.8532C24.3688 14.3532 23.5813 14.4376 23.0406 14.0438C22.6719 13.7751 22.5125 13.3563 22.5813 12.9563C22.5813 12.9563 22.6031 12.8282 22.6656 12.6063C22.7313 12.3845 22.8406 12.0688 23.0563 11.697C23.2719 11.3282 23.5844 10.8938 24.1125 10.497C24.3719 10.3032 24.6875 10.1095 25.0625 9.97822C25.1531 9.94385 25.25 9.9126 25.35 9.8876C25.4531 9.8626 25.5344 9.83447 25.675 9.81572L25.8688 9.7876C25.9281 9.78135 26.0156 9.77197 26.0281 9.77197L26.2 9.75947L26.2969 9.75635H26.325L26.3656 9.75947L26.4469 9.7626L26.6063 9.77197C26.7125 9.78135 26.8156 9.8001 26.9188 9.81572C27.1219 9.85322 27.325 9.90635 27.5094 9.9751C27.8512 10.0972 28.1718 10.2723 28.4594 10.4938C28.9875 10.8907 29.3 11.3251 29.5156 11.6938C29.625 11.8782 29.7063 12.0532 29.7656 12.2063C29.8313 12.3532 29.8781 12.5095 29.9156 12.6251C29.95 12.7376 29.95 12.797 29.9656 12.8501C29.975 12.9001 29.9781 12.9282 29.9781 12.9282C30.0938 13.5595 29.6281 14.1563 28.9438 14.2595C28.4469 14.3376 27.975 14.1376 27.7063 13.7876Z" fill="#422B0D"/>
<path id="Vector_6" d="M35.1188 0.381068C32.9125 1.26544 32.7188 3.77482 32.7188 3.77482C32.7188 3.77482 31.2719 2.20919 29.3125 2.86857C26.9594 3.66232 25.775 6.18732 27.6813 8.91232C29.8625 12.0279 36.8625 12.9154 36.8625 12.9154C36.8625 12.9154 40.7781 7.79982 40.2344 3.74357C39.7938 0.446693 36.7875 -0.287682 35.1188 0.381068Z" fill="#F44336"/>
<path id="Vector_7" d="M35.1187 0.381068C35.1187 0.381068 34.5781 0.602943 34.3656 0.812318C34.3656 0.812318 35.8531 0.659193 37.2 1.42794C38.0875 1.93419 38.9125 2.84044 39.2125 4.45607C39.8594 7.95607 37.0969 12.5498 36.8844 12.8873C37.1687 12.5092 40.7594 7.64044 40.2375 3.74357C39.7938 0.446693 36.7875 -0.287682 35.1187 0.381068ZM32.9281 4.04982C32.7125 3.79044 32.4563 3.56544 32.3 3.44044C31.5125 2.81232 30.8562 2.64982 30.0062 2.72794C29.1562 2.80294 28.3969 3.27794 28.3969 3.27794C28.3969 3.27794 29.2219 2.96544 30.3938 3.52482C31.0094 3.81857 31.55 4.25607 32.0031 4.76857C32.1656 4.95294 32.3281 5.15294 32.5469 5.26232C32.7656 5.37169 33.0719 5.35607 33.2219 5.15919C33.4562 4.84044 33.2312 4.41232 32.9281 4.04982Z" fill="#C62828"/>
<path id="Vector_8" d="M27.8187 6.29051C27.8375 5.46239 28.1406 4.44989 29.1375 4.40301C29.6687 4.37801 30.1969 5.05926 30.0125 5.69051C29.7 6.75926 29.9312 7.12801 30.0719 7.47489C30.2375 7.89364 30.4906 8.34989 30.3125 8.76239C30.1344 9.17489 29.7187 9.20301 29.1844 8.84676C29.0656 8.77176 27.7812 7.98426 27.8187 6.29051Z" fill="#FF847A"/>
<path id="Vector_9" d="M36.8469 30.0812C34.8531 28.7874 32.6906 30.0749 32.6906 30.0749C32.6906 30.0749 33.1375 27.9906 31.4688 26.7687C29.4656 25.2999 26.7188 25.7906 25.5906 28.9187C24.3 32.4968 27.6094 38.7281 27.6094 38.7281C27.6094 38.7281 34.0469 38.9812 37.0469 36.1999C39.4875 33.9406 38.3531 31.0593 36.8469 30.0812Z" fill="#F44336"/>
<path id="Vector_10" d="M36.8469 30.0813C36.8469 30.0813 36.3531 29.7688 36.0594 29.7126C36.0594 29.7126 37.0406 30.8407 37.1906 32.3845C37.2875 33.4032 37.0219 34.6001 35.875 35.7751C33.3875 38.322 28.0406 38.7126 27.6438 38.7313C28.1156 38.747 34.1656 38.8751 37.05 36.2032C39.4875 33.9407 38.3531 31.0595 36.8469 30.0813ZM32.5844 30.4063C32.6719 30.0813 32.7094 29.7438 32.7219 29.5438C32.7813 28.5376 32.5344 27.9063 31.9844 27.2563C31.4313 26.6063 30.6063 26.2563 30.6063 26.2563C30.6063 26.2563 31.3344 26.7501 31.5531 28.0313C31.6688 28.7032 31.6219 29.397 31.4625 30.0626C31.4063 30.3032 31.3344 30.547 31.375 30.7907C31.4156 31.0345 31.6 31.2751 31.8469 31.2813C32.2438 31.2938 32.4625 30.8626 32.5844 30.4063Z" fill="#C62828"/>
<path id="Vector_11" d="M27.8094 27.522C28.4969 27.0595 29.4969 26.722 30.1125 27.5095C30.4375 27.9282 30.1875 28.7501 29.5656 28.9657C28.5125 29.3251 28.3437 29.7282 28.1406 30.0407C27.8969 30.4188 27.6656 30.8876 27.225 30.9782C26.7844 31.0688 26.525 30.747 26.5062 30.1032C26.5031 29.972 26.4031 28.4688 27.8094 27.522Z" fill="#FF847A"/>
<path id="Vector_12" d="M9.24687 18.6783C7.02187 19.5127 6.77187 22.0158 6.77187 22.0158C6.77187 22.0158 5.35937 20.419 3.3875 21.0346C1.01562 21.7752 -0.221878 24.2752 1.625 27.0408C3.7375 30.2033 10.7156 31.244 10.7156 31.244C10.7156 31.244 14.7437 26.2158 14.2906 22.1502C13.9219 18.844 10.9312 18.0471 9.24687 18.6783Z" fill="#F44336"/>
<path id="Vector_13" d="M9.24688 18.6783C9.24688 18.6783 8.70313 18.8908 8.48438 19.0939C8.48438 19.0939 9.975 18.9752 11.3063 19.7721C12.1813 20.2971 12.9875 21.2221 13.25 22.8439C13.8188 26.3596 10.9563 30.8908 10.7375 31.2221C11.0281 30.8502 14.7281 26.0596 14.2906 22.1533C13.9219 18.8439 10.9313 18.0471 9.24688 18.6783ZM6.97813 22.3002C6.76875 22.0377 6.51875 21.8064 6.3625 21.6783C5.5875 21.0314 4.93438 20.8564 4.08438 20.9127C3.23125 20.9689 2.4625 21.4283 2.4625 21.4283C2.4625 21.4283 3.29375 21.1346 4.45313 21.7189C5.0625 22.0252 5.59375 22.4752 6.03438 22.9971C6.19375 23.1846 6.35 23.3877 6.56875 23.5002C6.7875 23.6127 7.09375 23.6064 7.24375 23.4127C7.4875 23.1002 7.27188 22.6658 6.97813 22.3002Z" fill="#C62828"/>
<path id="Vector_14" d="M1.81875 24.425C1.85625 23.5968 2.17813 22.5906 3.17813 22.5656C3.70938 22.5531 4.22188 23.2437 4.02188 23.8718C3.6875 24.9343 3.90938 25.3062 4.04063 25.6562C4.2 26.0781 4.44063 26.5406 4.25313 26.95C4.06563 27.3593 3.65 27.3781 3.12188 27.0093C3.0125 26.9312 1.74688 26.1187 1.81875 24.425Z" fill="#FF847A"/>
</g>
<defs>
<radialGradient id="paint0_radial_974_18" cx="0" cy="0" r="1" gradientUnits="userSpaceOnUse" gradientTransform="translate(20.375 19.6562) scale(17.8)">
<stop offset="0.5" stop-color="#FDE030"/>
<stop offset="0.919" stop-color="#F7C02B"/>
<stop offset="1" stop-color="#F4A223"/>
</radialGradient>
<radialGradient id="paint1_radial_974_18" cx="0" cy="0" r="1" gradientUnits="userSpaceOnUse" gradientTransform="translate(9.01589 19.6339) scale(5.94926 5.65152)">
<stop stop-color="#ED7770"/>
<stop offset="0.9" stop-color="#ED7770" stop-opacity="0"/>
</radialGradient>
<radialGradient id="paint2_radial_974_18" cx="0" cy="0" r="1" gradientUnits="userSpaceOnUse" gradientTransform="translate(31.985 19.6339) scale(5.94926 5.65152)">
<stop stop-color="#ED7770"/>
<stop offset="0.9" stop-color="#ED7770" stop-opacity="0"/>
</radialGradient>
<clipPath id="clip0_974_18">
<rect width="40" height="40" fill="white" transform="translate(0.5)"/>
</clipPath>
</defs>
</svg>
