<svg width="149" height="214" viewBox="0 0 149 214" fill="none" xmlns="http://www.w3.org/2000/svg">
<g id="material-symbols:bakery-dining-outline" clip-path="url(#clip0_903_279)">
<path id="Vector" d="M122.692 185.791C124.206 188.547 123.869 190.979 121.683 193.086C119.498 195.194 116.975 195.518 114.117 194.059L86.878 179.955L114.117 169.741L122.692 185.791ZM113.108 137.155L113.108 148.827L53.0814 172.173C51.7363 172.659 50.5996 172.539 49.6715 171.813C48.7433 171.087 48.0304 170.234 47.5327 169.255L39.4619 149.8C38.9574 148.341 39.1256 146.924 39.9663 145.549C40.807 144.174 41.984 143.322 43.4973 142.991L113.108 137.155ZM113.108 65.1727L113.108 76.8454L43.4973 71.0091C41.6477 70.6849 40.3867 69.8353 39.7141 68.4605C39.0415 67.0858 38.9574 65.6656 39.4619 64.2L47.5327 44.7455C48.0371 43.4485 48.7534 42.5179 49.6816 41.9537C50.6097 41.3895 51.743 41.3474 53.0814 41.8273L113.108 65.1727ZM122.692 28.2091L114.117 44.2591L86.878 34.0455L114.117 19.9409C116.975 18.4818 119.498 18.8061 121.683 20.9136C123.869 23.0212 124.206 25.453 122.692 28.2091ZM113.108 96.3L113.108 117.7L27.8601 124.995C26.3468 125.32 25.042 124.957 23.9457 123.906C22.8494 122.855 22.3046 121.597 22.3114 120.132L22.3114 93.8682C22.3114 92.5712 22.8595 91.3942 23.9558 90.3372C25.0521 89.2802 26.3535 88.8359 27.8601 89.0045L113.108 96.3ZM143.374 23.8318C143.374 17.0227 140.724 11.3485 135.424 6.80909C130.124 2.26969 123.863 -5.32091e-06 116.639 -5.00517e-06C114.621 -4.91697e-06 112.644 0.285329 110.707 0.855996C108.77 1.42666 106.88 2.11406 105.037 2.91818L62.6655 24.3182C55.9398 22.0485 49.2982 22.1295 42.7406 24.5614C36.1831 26.9932 31.5592 31.2894 28.8689 37.45L20.7981 56.9045C19.9574 59.1742 19.3689 61.4439 19.0326 63.7136C18.6963 65.9833 18.7804 68.253 19.2848 70.5227C14.4087 72.7924 10.3329 75.9538 7.05749 80.0068C3.78207 84.0599 2.14101 88.6803 2.13428 93.8682L2.13428 120.132C2.13428 125.32 3.77535 129.94 7.05749 133.993C10.3396 138.046 14.4154 141.208 19.2848 143.477C18.9485 145.747 18.9082 148.017 19.1637 150.286C19.4193 152.556 19.9641 154.826 20.7981 157.095L28.8689 176.55C31.5592 183.035 36.1831 187.574 42.7406 190.168C49.2982 192.762 55.7717 192.6 62.1611 189.682L104.533 211.082C106.383 212.055 108.316 212.784 110.334 213.27C112.352 213.757 114.453 214 116.639 214C124.206 214 130.555 211.526 135.686 206.578C140.818 201.63 143.381 195.512 143.374 188.223C143.374 186.439 143.162 184.656 142.738 182.873C142.315 181.089 141.686 179.306 140.852 177.523L133.285 162.445L133.285 51.0682L140.852 37.45C142.029 35.3424 142.745 33.1116 143.001 30.7576C143.256 28.4036 143.381 26.095 143.374 23.8318Z" fill="#FBCE74"/>
</g>
<defs>
<clipPath id="clip0_903_279">
<rect width="214" height="149" fill="white" transform="matrix(4.37114e-08 1 1 -4.37114e-08 0 0)"/>
</clipPath>
</defs>
</svg>
