<svg width="23" height="23" viewBox="0 0 23 23" fill="none" xmlns="http://www.w3.org/2000/svg">
<g id="Property 1=hover">
<path id="Vector" d="M11.25 6.09375C10.2302 6.09375 9.23328 6.39616 8.38534 6.96273C7.5374 7.52931 6.87651 8.33461 6.48625 9.27679C6.09598 10.219 5.99387 11.2557 6.19283 12.2559C6.39178 13.2561 6.88287 14.1749 7.60398 14.896C8.3251 15.6171 9.24385 16.1082 10.2441 16.3072C11.2443 16.5061 12.281 16.404 13.2232 16.0138C14.1654 15.6235 14.9707 14.9626 15.5373 14.1147C16.1038 13.2667 16.4062 12.2698 16.4062 11.25C16.4047 9.88295 15.861 8.57234 14.8943 7.60569C13.9277 6.63904 12.617 6.0953 11.25 6.09375ZM11.25 15.4688C10.4156 15.4688 9.59996 15.2213 8.90619 14.7578C8.21242 14.2942 7.67169 13.6353 7.35238 12.8644C7.03308 12.0936 6.94953 11.2453 7.11231 10.427C7.27509 9.60861 7.67689 8.8569 8.26689 8.26689C8.8569 7.67689 9.60861 7.27509 10.427 7.11231C11.2453 6.94953 12.0936 7.03308 12.8644 7.35238C13.6353 7.67169 14.2942 8.21242 14.7578 8.90619C15.2213 9.59996 15.4688 10.4156 15.4688 11.25C15.4675 12.3685 15.0226 13.4408 14.2317 14.2317C13.4408 15.0226 12.3685 15.4675 11.25 15.4688ZM16.4062 0H6.09375C4.47815 0.00182997 2.92924 0.644436 1.78684 1.78684C0.644436 2.92924 0.00182997 4.47815 0 6.09375V16.4062C0.00182997 18.0219 0.644436 19.5708 1.78684 20.7132C2.92924 21.8556 4.47815 22.4982 6.09375 22.5H16.4062C18.0219 22.4982 19.5708 21.8556 20.7132 20.7132C21.8556 19.5708 22.4982 18.0219 22.5 16.4062V6.09375C22.4982 4.47815 21.8556 2.92924 20.7132 1.78684C19.5708 0.644436 18.0219 0.00182997 16.4062 0ZM21.5625 16.4062C21.5609 17.7733 21.0172 19.0839 20.0506 20.0506C19.0839 21.0172 17.7733 21.5609 16.4062 21.5625H6.09375C4.7267 21.5609 3.41609 21.0172 2.44944 20.0506C1.48279 19.0839 0.939051 17.7733 0.9375 16.4062V6.09375C0.939051 4.7267 1.48279 3.41609 2.44944 2.44944C3.41609 1.48279 4.7267 0.939051 6.09375 0.9375H16.4062C17.7733 0.939051 19.0839 1.48279 20.0506 2.44944C21.0172 3.41609 21.5609 4.7267 21.5625 6.09375V16.4062ZM18.2812 5.15625C18.2812 5.34167 18.2263 5.52293 18.1233 5.6771C18.0202 5.83127 17.8738 5.95143 17.7025 6.02239C17.5312 6.09334 17.3427 6.11191 17.1609 6.07574C16.979 6.03956 16.8119 5.95027 16.6808 5.81916C16.5497 5.68805 16.4604 5.521 16.4243 5.33915C16.3881 5.15729 16.4067 4.96879 16.4776 4.79748C16.5486 4.62618 16.6687 4.47976 16.8229 4.37675C16.9771 4.27373 17.1583 4.21875 17.3438 4.21875C17.5923 4.21906 17.8306 4.31793 18.0063 4.49368C18.1821 4.66943 18.2809 4.9077 18.2812 5.15625Z" fill="#FBCE74"/>
</g>
</svg>
