<svg width="23" height="23" viewBox="0 0 23 23" fill="none" xmlns="http://www.w3.org/2000/svg">
<g id="Vector">
<path id="Vector_2" d="M11.25 6.34375C10.2302 6.34375 9.23328 6.64616 8.38534 7.21273C7.5374 7.77931 6.87651 8.58461 6.48625 9.52679C6.09598 10.469 5.99387 11.5057 6.19283 12.5059C6.39178 13.5061 6.88287 14.4249 7.60398 15.146C8.3251 15.8671 9.24385 16.3582 10.2441 16.5572C11.2443 16.7561 12.281 16.654 13.2232 16.2638C14.1654 15.8735 14.9707 15.2126 15.5373 14.3647C16.1038 13.5167 16.4062 12.5198 16.4062 11.5C16.4047 10.133 15.861 8.82234 14.8943 7.85569C13.9277 6.88904 12.617 6.3453 11.25 6.34375ZM11.25 15.7188C10.4156 15.7188 9.59996 15.4713 8.90619 15.0078C8.21242 14.5442 7.67169 13.8853 7.35238 13.1144C7.03308 12.3436 6.94953 11.4953 7.11231 10.677C7.27509 9.85861 7.67689 9.1069 8.26689 8.51689C8.8569 7.92689 9.60861 7.52509 10.427 7.36231C11.2453 7.19953 12.0936 7.28308 12.8644 7.60238C13.6353 7.92169 14.2942 8.46242 14.7578 9.15619C15.2213 9.84996 15.4688 10.6656 15.4688 11.5C15.4675 12.6185 15.0226 13.6908 14.2317 14.4817C13.4408 15.2726 12.3685 15.7175 11.25 15.7188ZM16.4062 0.25H6.09375C4.47815 0.25183 2.92924 0.894436 1.78684 2.03684C0.644436 3.17924 0.00182997 4.72815 0 6.34375V16.6562C0.00182997 18.2719 0.644436 19.8208 1.78684 20.9632C2.92924 22.1056 4.47815 22.7482 6.09375 22.75H16.4062C18.0219 22.7482 19.5708 22.1056 20.7132 20.9632C21.8556 19.8208 22.4982 18.2719 22.5 16.6562V6.34375C22.4982 4.72815 21.8556 3.17924 20.7132 2.03684C19.5708 0.894436 18.0219 0.25183 16.4062 0.25ZM21.5625 16.6562C21.5609 18.0233 21.0172 19.3339 20.0506 20.3006C19.0839 21.2672 17.7733 21.8109 16.4062 21.8125H6.09375C4.7267 21.8109 3.41609 21.2672 2.44944 20.3006C1.48279 19.3339 0.939051 18.0233 0.9375 16.6562V6.34375C0.939051 4.9767 1.48279 3.66609 2.44944 2.69944C3.41609 1.73279 4.7267 1.18905 6.09375 1.1875H16.4062C17.7733 1.18905 19.0839 1.73279 20.0506 2.69944C21.0172 3.66609 21.5609 4.9767 21.5625 6.34375V16.6562ZM18.2812 5.40625C18.2812 5.59167 18.2263 5.77293 18.1233 5.9271C18.0202 6.08127 17.8738 6.20143 17.7025 6.27239C17.5312 6.34334 17.3427 6.36191 17.1609 6.32574C16.979 6.28956 16.8119 6.20027 16.6808 6.06916C16.5497 5.93805 16.4604 5.771 16.4243 5.58915C16.3881 5.40729 16.4067 5.21879 16.4776 5.04748C16.5486 4.87618 16.6687 4.72976 16.8229 4.62675C16.9771 4.52373 17.1583 4.46875 17.3438 4.46875C17.5923 4.46906 17.8306 4.56793 18.0063 4.74368C18.1821 4.91943 18.2809 5.1577 18.2812 5.40625Z" fill="white"/>
</g>
</svg>
