<svg width="44" height="44" viewBox="0 0 44 44" fill="none" xmlns="http://www.w3.org/2000/svg">
<g id="mdi:ecology">
<path id="Vector" d="M3.66663 40.3333V36.6667C3.66663 36.6667 12.8333 33 22 33C31.1666 33 40.3333 36.6667 40.3333 36.6667V40.3333H3.66663ZM20.7166 16.6833C18.5166 9.53333 7.33329 11.1833 7.33329 11.1833C7.33329 11.1833 7.69996 25.4833 18.15 23.2833C17.4166 17.9667 14.6666 16.5 14.6666 16.5C19.8 16.5 20.1666 22.7333 20.1666 22.7333V31.1667H23.8333V23.4667C23.8333 23.4667 23.8333 16.3167 29.3333 14.4833C29.3333 14.4833 25.6666 19.9833 25.6666 23.65C38.5 24.9333 38.5 7.33333 38.5 7.33333C38.5 7.33333 22.1833 5.5 20.7166 16.6833Z" fill="#FBCE74"/>
</g>
</svg>
