<svg width="41" height="40" viewBox="0 0 41 40" fill="none" xmlns="http://www.w3.org/2000/svg">
<g id="noto:neutral-face">
<path id="Vector" d="M20.625 37.125C29.3438 37.125 38.75 31.6562 38.75 19.6562C38.75 7.65625 29.3438 2.1875 20.625 2.1875C15.7812 2.1875 11.3125 3.78125 8 6.6875C4.40625 9.875 2.5 14.375 2.5 19.6562C2.5 24.9375 4.40625 29.4063 8 32.5938C11.3125 35.5 15.8125 37.125 20.625 37.125Z" fill="url(#paint0_radial_266_833)"/>
<path id="Vector_2" d="M5.65937 9.27197C3.99374 11.9595 3.12499 15.1595 3.12499 18.7188C3.12499 24.0001 5.03124 28.4688 8.62499 31.6563C11.9375 34.5626 16.4375 36.1876 21.25 36.1876C26.8937 36.1876 32.8125 33.8907 36.3062 29.0188C32.9437 34.5376 26.6187 37.1251 20.625 37.1251C15.8125 37.1251 11.3125 35.5001 7.99999 32.5938C4.40624 29.4063 2.49999 24.9376 2.49999 19.6563C2.49999 15.6751 3.58437 12.1376 5.65937 9.27197Z" fill="#EB8F00"/>
<path id="Vector_3" d="M12.6875 27.5002H28.3125C29.0031 27.5002 29.5625 26.9408 29.5625 26.2502C29.5625 25.5596 29.0031 25.0002 28.3125 25.0002H12.6875C11.9969 25.0002 11.4375 25.5596 11.4375 26.2502C11.4375 26.9408 11.9969 27.5002 12.6875 27.5002ZM26.5406 14.3564C27.85 14.3564 29.0406 15.4627 29.0406 17.3002C29.0406 19.1377 27.85 20.2408 26.5406 20.2408C25.2313 20.2408 24.0406 19.1346 24.0406 17.3002C24.0406 15.4658 25.2313 14.3564 26.5406 14.3564Z" fill="#422B0D"/>
<path id="Vector_4" d="M26.6625 15.5842C26.8765 15.4824 27.122 15.4693 27.3456 15.5477C27.5692 15.6261 27.7528 15.7898 27.8563 16.0029C28.0219 16.3498 27.9469 16.7654 27.6688 17.0342C27.225 17.2467 26.6906 17.0592 26.475 16.6154C26.3094 16.2685 26.3844 15.8529 26.6625 15.5842Z" fill="#896024"/>
<path id="Vector_5" d="M14.5625 14.3564C15.8719 14.3564 17.0625 15.4627 17.0625 17.3002C17.0625 19.1377 15.8719 20.2408 14.5625 20.2408C13.2531 20.2408 12.0625 19.1346 12.0625 17.3002C12.0625 15.4658 13.2469 14.3564 14.5625 14.3564Z" fill="#422B0D"/>
<path id="Vector_6" d="M14.6781 15.5842C14.8921 15.4824 15.1377 15.4693 15.3613 15.5477C15.5849 15.6261 15.7684 15.7898 15.8719 16.0029C16.0375 16.3498 15.9625 16.7654 15.6844 17.0342C15.2406 17.2467 14.7063 17.0592 14.4906 16.6154C14.325 16.2685 14.4 15.8529 14.6781 15.5842Z" fill="#896024"/>
</g>
<defs>
<radialGradient id="paint0_radial_266_833" cx="0" cy="0" r="1" gradientUnits="userSpaceOnUse" gradientTransform="translate(20.625 19.6562) rotate(180) scale(17.8)">
<stop offset="0.5" stop-color="#FDE030"/>
<stop offset="0.92" stop-color="#F7C02B"/>
<stop offset="1" stop-color="#F4A223"/>
</radialGradient>
</defs>
</svg>
