<svg width="31" height="17" viewBox="0 0 31 17" fill="none" xmlns="http://www.w3.org/2000/svg">
<g id="Property 1=hover">
<g id="vk">
<mask id="path-1-inside-1_54_130" fill="white">
<path fill-rule="evenodd" clip-rule="evenodd" d="M30.2889 1.15114C30.5034 0.488143 30.2889 0 29.2621 0H25.8715C25.0087 0 24.6109 0.421357 24.3952 0.886429C24.3952 0.886429 22.6709 4.76729 20.2284 7.28814C19.4379 8.01914 19.0788 8.25107 18.6474 8.25107C18.4317 8.25107 18.1075 8.01914 18.1075 7.35493V1.15114C18.1075 0.354571 17.8698 0 17.1517 0H11.8198C11.2812 0 10.957 0.369143 10.957 0.720071C10.957 1.47414 12.1789 1.649 12.3042 3.77157V8.38343C12.3042 9.39493 12.1065 9.57828 11.6751 9.57828C10.5256 9.57828 7.72917 5.67921 6.06941 1.21793C5.7478 0.349714 5.4223 0 4.55561 0H1.16248C0.193746 0 0 0.421357 0 0.886429C0 1.71457 1.14956 5.82857 5.35385 11.2698C8.1567 14.9855 12.1027 17 15.6973 17C17.853 17 18.1191 16.5531 18.1191 15.7821V12.9734C18.1191 12.0785 18.3232 11.9 19.0065 11.9C19.5102 11.9 20.3717 12.1331 22.3841 13.9242C24.6832 16.048 25.0617 17 26.3559 17H29.7465C30.7152 17 31.2008 16.5531 30.9219 15.6691C30.6144 14.79 29.5166 13.5138 28.0609 11.9996C27.2704 11.1374 26.0847 10.2085 25.7243 9.74343C25.2218 9.14721 25.3652 8.88129 25.7243 8.35064C25.7243 8.35064 29.8575 2.97621 30.2877 1.15114H30.2889Z"/>
</mask>
<path d="M30.2889 1.15114V2.15114H31.0165L31.2404 1.45885L30.2889 1.15114ZM24.3952 0.886429L23.488 0.465674L23.4846 0.473003L23.4813 0.480386L24.3952 0.886429ZM20.2284 7.28814L20.9073 8.02233L20.9275 8.0037L20.9466 7.984L20.2284 7.28814ZM12.3042 3.77157H13.3042V3.74208L13.3024 3.71265L12.3042 3.77157ZM6.06941 1.21793L5.13168 1.5653L5.13217 1.56661L6.06941 1.21793ZM5.35385 11.2698L6.15224 10.6675L6.14515 10.6584L5.35385 11.2698ZM22.3841 13.9242L23.0627 13.1897L23.0559 13.1834L23.049 13.1772L22.3841 13.9242ZM30.9219 15.6691L31.8755 15.3682L31.8709 15.3535L31.8658 15.3391L30.9219 15.6691ZM28.0609 11.9996L27.3238 12.6754L27.3318 12.6841L27.34 12.6926L28.0609 11.9996ZM25.7243 9.74343L26.5148 9.13092L26.5022 9.1147L26.489 9.09901L25.7243 9.74343ZM25.7243 8.35064L24.9316 7.74102L24.9131 7.76508L24.8961 7.79021L25.7243 8.35064ZM30.2877 1.15114V0.151143H29.4959L29.3143 0.921756L30.2877 1.15114ZM31.2404 1.45885C31.3838 1.0156 31.4898 0.319668 31.0382 -0.27672C30.5953 -0.861728 29.8774 -1 29.2621 -1V1C29.4467 1 29.5337 1.02287 29.557 1.031C29.5661 1.03418 29.5543 1.03123 29.5307 1.01516C29.5061 0.998318 29.4742 0.970797 29.4438 0.930613C29.4132 0.890282 29.3923 0.847861 29.3795 0.809246C29.3672 0.771922 29.3647 0.745099 29.3643 0.734656C29.3636 0.719396 29.3673 0.751323 29.3375 0.843437L31.2404 1.45885ZM29.2621 -1H25.8715V1H29.2621V-1ZM25.8715 -1C25.2696 -1 24.7466 -0.850002 24.3185 -0.551268C23.8975 -0.257551 23.6455 0.12619 23.488 0.465674L25.3024 1.30718C25.3606 1.1816 25.4153 1.12212 25.4629 1.08889C25.5034 1.06068 25.6106 1 25.8715 1V-1ZM24.3952 0.886429C23.4813 0.480386 23.4814 0.480274 23.4814 0.480176C23.4814 0.480163 23.4815 0.48008 23.4815 0.480054C23.4815 0.480002 23.4815 0.480009 23.4815 0.480074C23.4814 0.480203 23.4813 0.480565 23.481 0.481158C23.4805 0.482343 23.4795 0.48445 23.4782 0.487457C23.4755 0.493473 23.4711 0.503091 23.4652 0.516153C23.4533 0.54228 23.435 0.582167 23.4105 0.634543C23.3615 0.739325 23.2879 0.893914 23.1916 1.08817C22.9989 1.47708 22.7164 2.02281 22.36 2.64485C21.6409 3.90013 20.6474 5.41861 19.5102 6.59229L20.9466 7.984C22.2518 6.63682 23.3418 4.95445 24.0954 3.63908C24.4754 2.9758 24.7767 2.39376 24.9836 1.97623C25.0872 1.76727 25.1674 1.59897 25.2222 1.48167C25.2496 1.42301 25.2707 1.37706 25.2853 1.3451C25.2926 1.32913 25.2982 1.31664 25.3022 1.30782C25.3042 1.30341 25.3057 1.29991 25.3069 1.29734C25.3075 1.29606 25.3079 1.29501 25.3083 1.2942C25.3085 1.29379 25.3086 1.29345 25.3087 1.29316C25.3088 1.29301 25.3089 1.29284 25.3089 1.29277C25.309 1.29261 25.3091 1.29247 24.3952 0.886429ZM19.5494 6.55395C19.1562 6.91757 18.9308 7.09866 18.7788 7.19227C18.7114 7.2338 18.6778 7.24557 18.6684 7.24849C18.6632 7.25012 18.6603 7.25107 18.6474 7.25107V9.25107C19.5269 9.25107 20.1619 8.71165 20.9073 8.02233L19.5494 6.55395ZM18.6474 7.25107C18.8911 7.25107 19.0352 7.3719 19.0904 7.44398C19.1495 7.52113 19.1075 7.52933 19.1075 7.35493H17.1075C17.1075 8.30741 17.6481 9.25107 18.6474 9.25107V7.25107ZM19.1075 7.35493V1.15114H17.1075V7.35493H19.1075ZM19.1075 1.15114C19.1075 0.703956 19.052 0.121732 18.6826 -0.34431C18.2648 -0.871423 17.6612 -1 17.1517 -1V1C17.2551 1 17.2783 1.0136 17.2565 1.00552C17.2433 1.00062 17.2193 0.989859 17.1908 0.969626C17.1618 0.949033 17.136 0.92423 17.1152 0.898024C17.0739 0.845958 17.0748 0.817025 17.0847 0.859959C17.0953 0.905905 17.1075 0.995834 17.1075 1.15114H19.1075ZM17.1517 -1H11.8198V1H17.1517V-1ZM11.8198 -1C10.8116 -1 9.95698 -0.262348 9.95698 0.720071H11.957C11.957 1.00063 11.7508 1 11.8198 1V-1ZM9.95698 0.720071C9.95698 1.21488 10.1705 1.57701 10.3494 1.81588C10.434 1.92892 10.5273 2.03546 10.5975 2.11565C10.6747 2.20392 10.7381 2.27612 10.8013 2.35555C11.0109 2.61874 11.2569 3.00039 11.3059 3.8305L13.3024 3.71265C13.2261 2.42018 12.7986 1.65312 12.3659 1.10972C12.2686 0.987497 12.1733 0.87944 12.1029 0.798957C12.0255 0.710394 11.9822 0.659686 11.9503 0.61713C11.8962 0.544799 11.957 0.602299 11.957 0.720071H9.95698ZM11.3042 3.77157V8.38343H13.3042V3.77157H11.3042ZM11.3042 8.38343C11.3042 8.60959 11.2927 8.75302 11.2789 8.84032C11.2642 8.93279 11.2545 8.91149 11.2939 8.8458C11.3163 8.80831 11.3524 8.76055 11.4058 8.7139C11.4597 8.66677 11.5173 8.63303 11.5708 8.61074C11.6672 8.57057 11.7254 8.57828 11.6751 8.57828V10.5783C11.8406 10.5783 12.0852 10.5631 12.34 10.4569C12.6235 10.3388 12.8514 10.1373 13.009 9.87454C13.2694 9.44045 13.3042 8.88259 13.3042 8.38343H11.3042ZM11.6751 8.57828C11.7953 8.57828 11.8122 8.62078 11.6917 8.54753C11.587 8.48383 11.4362 8.36762 11.2431 8.18075C10.8584 7.80843 10.3918 7.24012 9.88846 6.50576C8.88526 5.042 7.80862 3.02486 7.00665 0.869242L5.13217 1.56661C5.98997 3.87228 7.1414 6.03532 8.23873 7.63642C8.78569 8.43448 9.33747 9.11977 9.85225 9.61795C10.1089 9.86631 10.3782 10.0896 10.6528 10.2565C10.9118 10.4139 11.2676 10.5783 11.6751 10.5783V8.57828ZM7.00714 0.870559C6.83541 0.406975 6.60149 -0.106163 6.16558 -0.477689C5.6893 -0.883627 5.12366 -1 4.55561 -1V1C4.70861 1 4.79069 1.01588 4.83009 1.02749C4.86109 1.03662 4.86643 1.0429 4.86825 1.04446C4.89217 1.06484 4.9818 1.16067 5.13169 1.5653L7.00714 0.870559ZM4.55561 -1H1.16248V1H4.55561V-1ZM1.16248 -1C0.561911 -1 -0.0380368 -0.873519 -0.476172 -0.451032C-0.928533 -0.0148254 -1 0.534128 -1 0.886429H1C1 0.834698 1.00605 0.830638 0.99854 0.854281C0.988386 0.886268 0.962311 0.940239 0.9121 0.988657C0.863931 1.03511 0.83203 1.03926 0.862071 1.03016C0.89738 1.01946 0.988333 1 1.16248 1V-1ZM-1 0.886429C-1 1.24491 -0.89207 1.77263 -0.713715 2.37635C-0.526112 3.01138 -0.234692 3.81543 0.187914 4.7575C1.0337 6.64293 2.41312 9.09941 4.56254 11.8812L6.14515 10.6584C4.09029 7.99895 2.79278 5.67782 2.01272 3.93891C1.6224 3.06881 1.36366 2.34901 1.20434 1.80971C1.12459 1.53978 1.07144 1.32075 1.03895 1.15494C1.02274 1.07217 1.01249 1.00677 1.00649 0.957894C1.00019 0.906625 1 0.884907 1 0.886429H-1ZM4.55551 11.872C7.5154 15.7959 11.7394 18 15.6973 18V16C12.4659 16 8.79801 14.1751 6.15219 10.6676L4.55551 11.872ZM15.6973 18C16.7713 18 17.6416 17.9029 18.2432 17.5303C18.5913 17.3147 18.8365 17.0176 18.9755 16.661C19.1018 16.3372 19.1191 16.0168 19.1191 15.7821H17.1191C17.1191 15.9328 17.1032 15.9575 17.1122 15.9343C17.1193 15.9161 17.1331 15.8899 17.1547 15.864C17.176 15.8387 17.1923 15.8287 17.1901 15.83C17.1759 15.8388 17.0826 15.8887 16.8229 15.9314C16.5689 15.9731 16.2075 16 15.6973 16V18ZM19.1191 15.7821V12.9734H17.1191V15.7821H19.1191ZM19.1191 12.9734C19.1191 12.8796 19.1218 12.8053 19.1263 12.7465C19.1308 12.6873 19.1366 12.6515 19.1405 12.6328C19.149 12.5921 19.1418 12.6648 19.0603 12.7583C19.0194 12.8052 18.9723 12.8426 18.9258 12.8695C18.8815 12.8951 18.8481 12.9052 18.8372 12.9081C18.8274 12.9107 18.834 12.908 18.8652 12.9051C18.8961 12.9022 18.9413 12.9 19.0065 12.9V10.9C18.6628 10.9 18.0093 10.9203 17.5528 11.444C17.1445 11.9123 17.1191 12.5446 17.1191 12.9734H19.1191ZM19.0065 12.9C19.1158 12.9 19.7344 12.9046 21.7193 14.6712L23.049 13.1772C21.0091 11.3617 19.9046 10.9 19.0065 10.9V12.9ZM21.7056 14.6588C22.2625 15.1732 22.7039 15.6173 23.0774 15.9996C23.4408 16.3716 23.7714 16.7182 24.0675 16.9923C24.3688 17.2713 24.694 17.5331 25.0776 17.7185C25.4796 17.9127 25.8968 18 26.3559 18V16C26.1679 16 26.0524 15.9683 25.9477 15.9177C25.8244 15.8581 25.6687 15.7492 25.4262 15.5247C25.1785 15.2953 24.9025 15.0058 24.5079 14.6019C24.1234 14.2084 23.6553 13.7371 23.0627 13.1897L21.7056 14.6588ZM26.3559 18H29.7465V16H26.3559V18ZM29.7465 18C30.3363 18 31.0443 17.8716 31.5327 17.3488C32.0783 16.765 32.0761 16.0039 31.8755 15.3682L29.9682 15.9701C30.0073 16.094 29.9984 16.1376 30.0003 16.1221C30.0016 16.1125 30.006 16.0902 30.0193 16.0612C30.0328 16.0317 30.0512 16.0049 30.0714 15.9833C30.1117 15.9402 30.1323 15.9454 30.0784 15.9623C30.0228 15.9798 29.9167 16 29.7465 16V18ZM31.8658 15.3391C31.6531 14.7309 31.2104 14.0819 30.7027 13.4476C30.1792 12.7937 29.516 12.0703 28.7818 11.3065L27.34 12.6926C28.0614 13.443 28.675 14.1149 29.1413 14.6974C29.6232 15.2995 29.8832 15.7283 29.9779 15.9992L31.8658 15.3391ZM28.7979 11.3238C28.3653 10.8519 27.835 10.3724 27.402 9.98088C26.922 9.54683 26.6259 9.27433 26.5148 9.13092L24.9338 10.3559C25.1831 10.6776 25.66 11.1021 26.0606 11.4643C26.5082 11.8691 26.9659 12.2851 27.3238 12.6754L28.7979 11.3238ZM26.489 9.09901C26.3969 8.98978 26.3759 8.94331 26.3769 8.94553C26.3788 8.94989 26.3868 8.96944 26.3927 9.00178C26.3988 9.03528 26.4007 9.07204 26.3975 9.10856C26.3913 9.17996 26.3696 9.20812 26.3911 9.16625C26.4016 9.14593 26.4187 9.11593 26.4467 9.07137C26.4749 9.02662 26.5089 8.97555 26.5525 8.91107L24.8961 7.79021C24.7521 8.00298 24.4494 8.42236 24.4049 8.93633C24.3525 9.54329 24.6508 10.0214 24.9596 10.3878L26.489 9.09901ZM25.7243 8.35064C26.517 8.96027 26.517 8.9602 26.5171 8.96012C26.5171 8.96006 26.5172 8.95996 26.5173 8.95984C26.5175 8.95962 26.5177 8.95932 26.518 8.95893C26.5186 8.95816 26.5194 8.95707 26.5205 8.95565C26.5227 8.95282 26.5259 8.9487 26.53 8.94334C26.5382 8.93262 26.5502 8.91691 26.5658 8.89648C26.597 8.85562 26.6424 8.79587 26.7003 8.71942C26.8159 8.56655 26.9811 8.34673 27.1805 8.07747C27.5789 7.53948 28.1156 6.80149 28.6671 6.00413C29.2171 5.20894 29.7894 4.34373 30.2548 3.55356C30.6997 2.79836 31.1146 2.00168 31.261 1.38053L29.3143 0.921756C29.2456 1.21315 28.9826 1.77267 28.5315 2.53847C28.101 3.26931 27.5593 4.08991 27.0222 4.86646C26.4866 5.64084 25.9632 6.36053 25.5732 6.88728C25.3784 7.15038 25.2173 7.3647 25.1052 7.51287C25.0492 7.58694 25.0054 7.64444 24.9758 7.6832C24.9611 7.70258 24.9498 7.71727 24.9424 7.727C24.9386 7.73186 24.9359 7.73548 24.9341 7.73783C24.9332 7.73901 24.9325 7.73986 24.9321 7.74039C24.9319 7.74066 24.9317 7.74085 24.9317 7.74095C24.9316 7.741 24.9316 7.74102 24.9316 7.74104C24.9316 7.74104 24.9316 7.74102 25.7243 8.35064ZM30.2877 2.15114H30.2889V0.151143H30.2877V2.15114Z" fill="#FBCE74" mask="url(#path-1-inside-1_54_130)"/>
</g>
</g>
</svg>
